<svg width="60" height="60" viewBox="0 0 60 60" fill="none" xmlns="http://www.w3.org/2000/svg">
<path d="M59.6566 15.8985L44.1016 0.343125C43.6439 -0.114375 42.9021 -0.114375 42.4442 0.343125L38.3016 4.48547C38.0819 4.70525 37.9584 5.00331 37.9584 5.3141C37.9584 5.62489 38.0819 5.92295 38.3016 6.14273L43.2227 11.0637L38.5637 15.7226L31.3927 8.55152C30.935 8.09391 30.193 8.09402 29.7353 8.55152L24.9769 13.3099C24.7572 13.5297 24.6337 13.8278 24.6337 14.1386C24.6337 14.4493 24.7572 14.7474 24.9769 14.9672L26.4882 16.4784L7.06527 35.902C5.28051 37.6868 5.28051 40.5911 7.06527 42.3762L8.55648 43.8674L5.82226 46.6016C5.71343 46.7104 5.6271 46.8396 5.5682 46.9818C5.5093 47.124 5.47899 47.2763 5.47899 47.4302C5.47899 47.5841 5.5093 47.7365 5.5682 47.8787C5.6271 48.0209 5.71343 48.1501 5.82226 48.2589L7.95297 50.3897L0.343396 57.9991C-0.114221 58.4568 -0.114221 59.1988 0.343396 59.6565C0.572263 59.8854 0.872146 59.9998 1.17203 59.9998C1.47191 59.9998 1.77191 59.8854 2.00066 59.6565L9.61035 52.0468L11.7412 54.1777C11.961 54.3974 12.259 54.5208 12.5698 54.5208C12.8806 54.5208 13.1787 54.3974 13.3984 54.1777L16.1327 51.4434L17.6239 52.9347C18.4885 53.7993 19.6382 54.2754 20.8609 54.2754C22.0837 54.2754 23.2334 53.7993 24.098 52.9347L43.5211 33.5116L45.0324 35.0229C45.1411 35.1319 45.2702 35.2183 45.4124 35.2772C45.5546 35.3361 45.7071 35.3663 45.861 35.3661C46.161 35.3661 46.4608 35.2518 46.6896 35.0229L51.4479 30.2645C51.6677 30.0447 51.7911 29.7466 51.7911 29.4359C51.7911 29.1251 51.6677 28.827 51.4479 28.6072L44.2769 21.4362L48.9358 16.7773L53.8567 21.6982C53.9654 21.8072 54.0946 21.8936 54.2368 21.9525C54.379 22.0114 54.5314 22.0416 54.6853 22.0414C54.9854 22.0414 55.2851 21.9271 55.514 21.6982L59.6564 17.5557C60.1143 17.0982 60.1143 16.3562 59.6566 15.8985ZM24.736 21.546L30.1578 26.9678C30.2665 27.0768 30.3956 27.1632 30.5378 27.2221C30.68 27.281 30.8325 27.3112 30.9864 27.311C31.2864 27.311 31.5862 27.1966 31.815 26.9678C32.2727 26.5102 32.2727 25.7681 31.815 25.3105L26.3932 19.8887L28.1455 18.1364L38.2342 28.2251L32.8749 33.5844L22.7861 23.4956L24.736 21.546ZM12.5698 51.6916L8.30816 47.4301L10.2139 45.5246L14.4753 49.7861L12.5698 51.6916ZM22.4405 51.2773C21.5696 52.1482 20.1522 52.1483 19.2812 51.2773L8.72254 40.7187C7.85148 39.8476 7.85148 38.4302 8.72254 37.5593L10.3918 35.8901L13.2774 38.7757C13.5062 39.0046 13.8061 39.1189 14.106 39.1189C14.4059 39.1189 14.7059 39.0046 14.9346 38.7757C15.3923 38.3181 15.3923 37.5761 14.9346 37.1183L12.049 34.2327L13.9776 32.304L19.3993 37.7257C19.6281 37.9546 19.928 38.0689 20.2279 38.0689C20.5278 38.0689 20.8278 37.9545 21.0565 37.7257C21.5141 37.2681 21.5141 36.5261 21.0565 36.0684L15.6347 30.6466L17.5634 28.718L20.449 31.6036C20.6779 31.8325 20.9778 31.9468 21.2777 31.9468C21.5775 31.9468 21.8775 31.8325 22.1063 31.6036C22.5639 31.146 22.5639 30.4039 22.1063 29.9462L19.2207 27.0606L21.1282 25.153L31.217 35.2417L23.5962 42.8626C23.1386 43.3202 23.1386 44.0623 23.5962 44.52C23.8251 44.7489 24.125 44.8632 24.4248 44.8632C24.7247 44.8632 25.0247 44.7487 25.2535 44.52L32.8743 36.8991L34.8461 38.8709L22.4405 51.2773ZM36.5043 37.2137L34.5325 35.2417L39.8918 29.8822L41.8636 31.854L36.5043 37.2137ZM48.962 29.4359L45.861 32.5369L27.4629 14.1389L30.5639 11.0379L48.962 29.4359ZM42.6197 19.7789L40.221 17.3802L44.8799 12.7212L47.2786 15.1199L42.6197 19.7789ZM54.6857 19.2123L40.7877 5.31422L43.2729 2.82902L57.1709 16.727L54.6857 19.2123Z" fill="#F1CDB3"/>
<path d="M22.3158 46.7207C22.3017 46.6457 22.2783 46.5719 22.249 46.5016C22.2199 46.4306 22.1838 46.3627 22.1412 46.2988C22.099 46.2344 22.0498 46.1746 21.9959 46.1207C21.942 46.0668 21.8822 46.0176 21.8178 45.9754C21.7539 45.9328 21.686 45.8967 21.615 45.8676C21.5447 45.8383 21.4709 45.816 21.3959 45.8008C21.2451 45.7703 21.0897 45.7703 20.9389 45.8008C20.8639 45.816 20.79 45.8383 20.7197 45.8676C20.6482 45.8969 20.5803 45.9332 20.517 45.9754C20.4525 46.0176 20.3928 46.0668 20.3389 46.1207C20.2849 46.1746 20.2357 46.2344 20.1935 46.2988C20.1514 46.362 20.115 46.4301 20.0857 46.5016C20.0564 46.5719 20.033 46.6457 20.0189 46.7207C20.0037 46.7957 19.9955 46.8731 19.9955 46.9492C19.9955 47.0254 20.0037 47.1028 20.0189 47.1789C20.033 47.2528 20.0564 47.3266 20.0857 47.3981C20.115 47.4684 20.1514 47.5364 20.1935 47.5996C20.2357 47.6641 20.2849 47.7239 20.3389 47.7778C20.4476 47.8871 20.5771 47.9735 20.7197 48.0321C20.8615 48.0913 21.0137 48.1216 21.1674 48.1211C21.321 48.1216 21.4732 48.0913 21.615 48.0321C21.7577 47.9735 21.8871 47.8871 21.9959 47.7778C22.0498 47.7239 22.099 47.6641 22.1412 47.5996C22.1834 47.5364 22.2197 47.4684 22.249 47.3981C22.2783 47.3266 22.3017 47.2528 22.3158 47.1789C22.331 47.1028 22.3392 47.0254 22.3392 46.9492C22.3392 46.8731 22.331 46.7957 22.3158 46.7207Z" fill="#F1CDB3"/>
</svg>
