<svg width="60" height="60" viewBox="0 0 60 60" fill="none" xmlns="http://www.w3.org/2000/svg">
<path d="M55.0514 12.7115H48.0284V12.5095C48.0284 8.87665 45.073 5.92118 41.4402 5.92118C37.8073 5.92118 34.8519 8.87665 34.8519 12.5095V12.7115H26.6041C23.8884 12.7115 21.6791 14.9209 21.6791 17.6365V23.2009H14.2928C12.5308 23.2009 10.9646 24.2562 10.3028 25.8893C10.2932 25.9133 10.2843 25.9375 10.2761 25.962L6.01507 38.8689C5.9764 38.8919 5.92706 38.9191 5.86566 38.9498C5.62203 39.0714 5.16628 39.2568 4.38206 39.4484C3.13761 39.7499 2.0309 40.4616 1.24022 41.4688C0.449549 42.4759 0.0209608 43.72 0.0235098 45.0004V51.0987C0.0235098 53.1406 1.68464 54.8018 3.72652 54.8018L8.95074 54.802C9.50234 57.7562 12.0984 59.9999 15.2102 59.9999C18.3219 59.9999 20.9179 57.7561 21.4696 54.8021L39.8942 54.8024C40.4459 57.7564 43.0419 59.9999 46.1536 59.9999C49.2651 59.9999 51.8611 57.7565 52.4129 54.8026L55.7306 54.8027C58.2702 54.8027 59.9764 53.0963 59.9764 50.5568V20.08C59.9764 13.4295 56.5321 12.7115 55.0514 12.7115ZM37.1956 12.5095C37.1956 10.169 39.0997 8.26493 41.4402 8.26493C43.7806 8.26493 45.6847 10.169 45.6847 12.5095V12.7115H37.1956V12.5095ZM12.4883 26.7379C12.638 26.3833 12.8892 26.0809 13.2102 25.8686C13.5312 25.6563 13.9078 25.5436 14.2927 25.5447H21.6789V38.8266H8.49722L12.4883 26.7379ZM15.2102 57.6562C12.9905 57.6562 11.1847 55.8504 11.1847 53.6307C11.1847 53.6033 11.1862 53.5762 11.1868 53.5488C11.1876 53.5069 11.1878 53.465 11.19 53.4234C11.1903 53.4168 11.1911 53.4104 11.1915 53.4038C11.3096 51.2894 13.0669 49.6052 15.2102 49.6052C17.1496 49.6052 18.7732 50.9841 19.152 52.8129L19.1537 52.82C19.1664 52.882 19.1775 52.9445 19.1873 53.0076L19.1892 53.018C19.1962 53.0638 19.2014 53.1101 19.2068 53.1564C19.2092 53.1775 19.2126 53.1983 19.2147 53.2194C19.2184 53.2554 19.2203 53.2921 19.223 53.3285C19.2254 53.3602 19.2287 53.3916 19.2303 53.4235C19.2319 53.4563 19.2319 53.4896 19.2328 53.5226C19.2337 53.5586 19.2355 53.5944 19.2355 53.6306C19.2357 55.8504 17.4298 57.6562 15.2102 57.6562ZM46.1536 57.6562C43.9339 57.6562 42.128 55.8504 42.128 53.6307C42.128 53.5783 42.13 53.5263 42.132 53.4743C42.1326 53.4576 42.1325 53.4405 42.1333 53.4238C42.1353 53.3852 42.1391 53.3471 42.1421 53.3088C42.1445 53.2791 42.1459 53.2491 42.1489 53.2196C42.1502 53.207 42.1523 53.1947 42.1536 53.1823C42.1672 53.06 42.1856 52.939 42.21 52.8203C42.2107 52.8168 42.2116 52.8134 42.2124 52.8099C42.5925 50.9826 44.215 49.6053 46.1536 49.6053C46.7084 49.6053 47.2375 49.7181 47.7189 49.9222C49.1633 50.5341 50.1789 51.966 50.1789 53.6308C50.1789 55.8504 48.3732 57.6562 46.1536 57.6562ZM55.7306 52.4588L52.4148 52.4587C52.4109 52.4379 52.4059 52.4175 52.4018 52.3968C52.3742 52.2591 52.3424 52.1222 52.3065 51.9864C52.2905 51.927 52.2737 51.8679 52.256 51.809C52.245 51.7724 52.2342 51.7358 52.2227 51.6994C52.203 51.6382 52.1823 51.5772 52.1607 51.5166C52.1492 51.4842 52.1383 51.4513 52.1262 51.4191C52.1001 51.3492 52.0727 51.2799 52.044 51.211C52.035 51.1892 52.0268 51.1669 52.0175 51.1452C51.9788 51.0542 51.938 50.9641 51.8952 50.875C51.8898 50.8639 51.8839 50.8532 51.8785 50.8422C51.8411 50.7656 51.8022 50.6897 51.7618 50.6146C51.7469 50.5871 51.7311 50.5602 51.7159 50.5329C51.6837 50.4749 51.6506 50.4175 51.6166 50.3606C51.5981 50.3297 51.5789 50.2995 51.5598 50.2689C51.5075 50.1846 51.4531 50.1016 51.3965 50.0201C51.3409 49.9395 51.2835 49.8602 51.2243 49.7821C51.1873 49.7337 51.1496 49.6858 51.1113 49.6385C51.0884 49.6102 51.0659 49.5819 51.0426 49.554C51.0009 49.5043 50.9584 49.4553 50.9152 49.4069C50.8939 49.383 50.8732 49.3585 50.8515 49.3349C50.7977 49.2763 50.7428 49.2188 50.6868 49.1623C50.6748 49.1501 50.6633 49.1374 50.6511 49.1253C50.582 49.0563 50.5114 48.989 50.4392 48.9233C50.4239 48.9092 50.4078 48.896 50.3922 48.882C50.3357 48.8315 50.2786 48.7815 50.2202 48.7329C50.1946 48.7116 50.1683 48.6912 50.1424 48.6704C50.093 48.6304 50.043 48.5911 49.9925 48.5525C49.9627 48.53 49.9326 48.5081 49.9025 48.4861C49.7751 48.3927 49.6442 48.3043 49.51 48.221C49.4772 48.2004 49.4443 48.1802 49.411 48.1602C49.3591 48.1292 49.3066 48.0993 49.2537 48.0698C49.2213 48.0516 49.1889 48.0331 49.1561 48.0155C49.0987 47.9847 49.0405 47.9553 48.982 47.9262C48.9529 47.9117 48.9242 47.8966 48.8949 47.8826C48.8183 47.8461 48.741 47.8111 48.663 47.7776C48.6511 47.7725 48.6393 47.7667 48.6273 47.7616C48.5366 47.7233 48.445 47.6871 48.3526 47.6531C48.3262 47.6433 48.2994 47.6348 48.2728 47.6254C48.2064 47.602 48.14 47.5789 48.0727 47.5575C48.0375 47.5464 48.0018 47.5363 47.9663 47.5258C47.9067 47.5081 47.8469 47.4906 47.7866 47.4746C47.7479 47.4643 47.709 47.4549 47.67 47.4453C47.5715 47.421 47.4724 47.3992 47.3729 47.3798C47.3139 47.3684 47.2548 47.3578 47.1955 47.348C47.1548 47.3413 47.1141 47.3345 47.0732 47.3287C47.0116 47.3199 46.9498 47.3121 46.888 47.3051C46.8487 47.3006 46.8096 47.2956 46.7701 47.2919C46.7015 47.2856 46.6329 47.2803 46.5642 47.2762C46.5305 47.2741 46.4973 47.271 46.4635 47.2694C46.3602 47.2643 46.2568 47.2617 46.1534 47.2615C46.0495 47.2615 45.9461 47.2645 45.8434 47.2694C45.8096 47.271 45.7762 47.2741 45.7426 47.2762C45.6738 47.2806 45.6051 47.2853 45.5369 47.2919C45.4973 47.2958 45.4582 47.3007 45.4188 47.3052C45.3569 47.3124 45.2952 47.3199 45.2339 47.3288C45.1928 47.3348 45.152 47.3415 45.1112 47.3483C45.0111 47.3649 44.9114 47.3838 44.8121 47.4049C44.7538 47.4175 44.6956 47.431 44.6376 47.4453C44.5982 47.4549 44.559 47.4645 44.52 47.4748C44.4602 47.4906 44.401 47.5079 44.342 47.5254C44.3059 47.5362 44.2695 47.5464 44.2337 47.5578C44.168 47.5788 44.1026 47.601 44.0376 47.6242C44.0097 47.6341 43.9815 47.6431 43.9537 47.6534C43.8616 47.6874 43.7704 47.7233 43.6804 47.7613C43.6655 47.7677 43.651 47.7747 43.6361 47.7812C43.561 47.8136 43.4865 47.847 43.4129 47.8822C43.3818 47.897 43.3515 47.913 43.3207 47.9283C43.2642 47.9566 43.2077 47.9849 43.1521 48.0147C43.1178 48.0331 43.0839 48.0524 43.05 48.0715C42.9988 48.1001 42.948 48.1293 42.8976 48.1592C42.7791 48.2304 42.6628 48.3051 42.5489 48.3833C42.5015 48.416 42.4546 48.4494 42.4081 48.4835C42.3761 48.5068 42.344 48.53 42.3125 48.5539C42.2643 48.5904 42.2171 48.6281 42.17 48.6659C42.1416 48.6888 42.1129 48.711 42.0849 48.7343C42.0308 48.7795 41.9778 48.826 41.9252 48.8727C41.9056 48.8901 41.8856 48.9069 41.8662 48.9244C41.7951 48.9892 41.7255 49.0556 41.6574 49.1235C41.6402 49.1406 41.6239 49.1587 41.6068 49.176C41.5563 49.2276 41.5061 49.2795 41.4573 49.3328C41.4329 49.3595 41.4093 49.387 41.3854 49.414C41.3452 49.4594 41.3053 49.5049 41.2664 49.5514C41.2411 49.5817 41.2164 49.6126 41.1917 49.6434C41.1556 49.6881 41.12 49.7331 41.0851 49.7788C41.0014 49.889 40.9212 50.0018 40.8445 50.1169C40.8125 50.165 40.7816 50.2137 40.751 50.2627C40.73 50.2962 40.7088 50.3296 40.6885 50.3635C40.6569 50.4161 40.6266 50.4695 40.5966 50.5232C40.5791 50.5545 40.5609 50.5854 40.5438 50.6172C40.5077 50.684 40.4734 50.752 40.4397 50.8202C40.4302 50.8394 40.42 50.858 40.4108 50.8774C40.3686 50.965 40.3285 51.0536 40.2904 51.143C40.2788 51.1703 40.2684 51.1982 40.2571 51.2258C40.2313 51.2889 40.2057 51.3523 40.1818 51.4165C40.1684 51.4524 40.1564 51.4887 40.1436 51.5247C40.1234 51.5817 40.104 51.6389 40.0854 51.6964C40.0728 51.7355 40.0612 51.7751 40.0494 51.8146C40.0206 51.911 39.9941 52.008 39.97 52.1056C39.9561 52.162 39.9431 52.2187 39.9307 52.2758C39.9216 52.3171 39.9127 52.3585 39.9045 52.4001C39.9007 52.4198 39.8959 52.4391 39.8922 52.4588L21.4711 52.4585C21.4672 52.4382 21.4624 52.4181 21.4584 52.3979C21.4505 52.3578 21.4419 52.3181 21.4333 52.2783C21.3993 52.1215 21.3592 51.9659 21.3132 51.8122C21.3018 51.774 21.2905 51.7358 21.2784 51.6978C21.2594 51.6389 21.2396 51.5804 21.2189 51.5221C21.2066 51.4872 21.1947 51.452 21.1818 51.4174C21.1574 51.3522 21.1318 51.2875 21.1051 51.2232C21.0943 51.1967 21.0842 51.1697 21.073 51.1435C21.0348 51.0538 20.9946 50.965 20.9523 50.8771C20.9437 50.8594 20.9343 50.8423 20.9257 50.8247C20.8914 50.7548 20.8559 50.6855 20.819 50.6169C20.8024 50.5859 20.7846 50.5556 20.7673 50.525C20.7369 50.4707 20.7063 50.4166 20.6743 50.3634C20.6541 50.3297 20.6332 50.2968 20.6124 50.2636C20.5817 50.2143 20.5504 50.1654 20.5183 50.1169C20.4416 50.0019 20.3614 49.8893 20.2778 49.7792C20.243 49.7335 20.2074 49.6885 20.1713 49.6438C20.1465 49.613 20.1218 49.582 20.0964 49.5516C20.0575 49.5055 20.018 49.4598 19.9778 49.4147C19.9537 49.3876 19.93 49.3599 19.9055 49.3331C19.8573 49.2803 19.8076 49.2289 19.7575 49.1778C19.74 49.1599 19.7232 49.1413 19.7054 49.1238C19.6374 49.0559 19.5679 48.9897 19.4969 48.925C19.4772 48.907 19.4566 48.89 19.4367 48.8722C19.3846 48.8255 19.3318 48.7798 19.2782 48.7349C19.2499 48.7114 19.2208 48.6888 19.1921 48.6657C19.1455 48.6282 19.0986 48.5908 19.0508 48.5546C19.019 48.5304 18.9867 48.5071 18.9544 48.4836C18.9082 48.4497 18.8615 48.4165 18.8144 48.3838C18.7338 48.3285 18.6519 48.2749 18.5689 48.2232C18.5345 48.2016 18.4998 48.1803 18.465 48.1594C18.4149 48.1296 18.3644 48.1006 18.3136 48.0722C18.2793 48.053 18.2452 48.0336 18.2105 48.0151C18.1552 47.9856 18.0995 47.957 18.0433 47.9293C18.0121 47.9137 17.9813 47.8975 17.9498 47.8824C17.8771 47.8478 17.8037 47.8146 17.7297 47.7827C17.7139 47.7758 17.6984 47.7683 17.6825 47.7615C17.5924 47.7234 17.5014 47.6875 17.4096 47.6536C17.3813 47.6432 17.3526 47.6341 17.3241 47.624C17.2596 47.601 17.1948 47.579 17.1296 47.558C17.0935 47.5465 17.0568 47.5362 17.0204 47.5254C16.9616 47.5078 16.9026 47.491 16.8433 47.4751C16.8041 47.4646 16.7646 47.455 16.7251 47.4454C16.5687 47.4067 16.4109 47.3743 16.2519 47.3484C16.2111 47.3417 16.1703 47.3349 16.1292 47.3289C16.0676 47.3202 16.0059 47.3123 15.9441 47.3054C15.9049 47.3008 15.8657 47.2959 15.8262 47.292C15.7577 47.2857 15.6891 47.2805 15.6203 47.2763C15.5867 47.2742 15.5534 47.2711 15.5197 47.2695C15.4164 47.2644 15.313 47.2618 15.2096 47.2617C15.1057 47.2617 15.0024 47.2646 14.8995 47.2695C14.8658 47.2711 14.8324 47.2742 14.7987 47.2763C14.73 47.2808 14.6613 47.2854 14.5931 47.292C14.5535 47.2959 14.5142 47.3008 14.4748 47.3054C14.4132 47.3123 14.3516 47.3202 14.2902 47.3289C14.2489 47.3349 14.208 47.3417 14.1671 47.3484C14.067 47.3648 13.9673 47.3837 13.8682 47.405C13.81 47.4175 13.7523 47.431 13.6946 47.4452C13.6549 47.4549 13.615 47.4646 13.5757 47.4751C13.5168 47.4909 13.4582 47.5076 13.3999 47.5251C13.3631 47.536 13.326 47.5465 13.2895 47.558C13.225 47.5784 13.1613 47.6007 13.0977 47.6231C13.0682 47.6334 13.0386 47.6429 13.0094 47.6536C12.9178 47.6875 12.8271 47.7231 12.7375 47.761C12.7194 47.7687 12.7017 47.7773 12.6836 47.7851C12.612 47.8162 12.5408 47.8481 12.4705 47.8817C12.4377 47.8974 12.4055 47.9143 12.373 47.9306C12.3182 47.9577 12.2638 47.9855 12.2098 48.0142C12.1742 48.0333 12.1392 48.0534 12.1039 48.0732C12.0542 48.1011 12.0046 48.1292 11.9558 48.1585C11.8722 48.2086 11.7897 48.2604 11.7084 48.3141C11.6732 48.3373 11.6383 48.3608 11.6036 48.3847C11.5577 48.4163 11.5125 48.4488 11.4673 48.4816C11.4339 48.506 11.4003 48.5302 11.3674 48.5553C11.3213 48.5903 11.2761 48.6263 11.231 48.6625C11.2006 48.6869 11.1699 48.7107 11.1402 48.7356C11.0894 48.7778 11.04 48.8214 10.9906 48.8651C10.9677 48.8854 10.9442 48.9051 10.9215 48.9257C10.8513 48.9898 10.7825 49.0554 10.7151 49.1225C10.6943 49.1433 10.6743 49.1651 10.6537 49.1862C10.6069 49.2342 10.5604 49.2822 10.5152 49.3315C10.4888 49.3602 10.4635 49.3899 10.4377 49.4191C10.3995 49.4623 10.3614 49.5056 10.3245 49.5499C10.2978 49.5817 10.2718 49.6143 10.2458 49.6468C10.2111 49.6897 10.177 49.7331 10.1435 49.777C10.0846 49.8544 10.0274 49.9332 9.97203 50.0132C9.94769 50.0482 9.92371 50.0835 9.90007 50.1189C9.86925 50.1653 9.83949 50.2123 9.80984 50.2594C9.78781 50.2946 9.76566 50.3295 9.74433 50.3651C9.71398 50.4156 9.68503 50.467 9.65609 50.5183C9.63734 50.5517 9.618 50.5847 9.59972 50.6185C9.56596 50.6817 9.53326 50.7454 9.50164 50.8097C9.49015 50.8327 9.47796 50.8552 9.46683 50.8784C9.42511 50.9651 9.38539 51.0529 9.34753 51.1417C9.33464 51.172 9.32316 51.2028 9.31074 51.2333C9.28613 51.2936 9.26163 51.354 9.2389 51.4151C9.22496 51.4525 9.2123 51.4904 9.19906 51.5281C9.1796 51.5835 9.16039 51.639 9.14246 51.695C9.12957 51.7352 9.11761 51.7757 9.10554 51.8163C9.08925 51.871 9.07343 51.9258 9.05855 51.9811C9.03247 52.0781 9.00883 52.1757 8.98765 52.2739C8.97851 52.3161 8.96937 52.3581 8.96105 52.4007C8.9573 52.4199 8.95261 52.4389 8.94898 52.4581H3.72652C2.97699 52.4581 2.36726 51.8484 2.36726 51.0987V45.0004C2.36569 44.2451 2.61846 43.5113 3.08484 42.9171C3.55122 42.323 4.20404 41.9032 4.93812 41.7254C5.60597 41.5621 6.1796 41.376 6.648 41.1705H49.2096C49.8567 41.1705 50.3814 40.6458 50.3814 39.9986C50.3814 39.3515 49.8567 38.8267 49.2096 38.8267H24.0228V17.6365C24.0228 16.2133 25.1809 15.0552 26.6041 15.0552H55.0512C57.2973 15.0552 57.6325 18.2034 57.6325 20.08V50.5567C57.6325 52.2118 56.4409 52.4588 55.7306 52.4588Z" fill="#F1CDB3"/>
<path d="M50.4841 24.8147C50.4842 23.2763 49.4036 21.9863 47.9619 21.6615C47.9696 21.5806 47.9757 21.4992 47.9781 21.4169C48.0049 20.4633 47.6487 19.5567 46.9752 18.864C46.2902 18.1596 45.3336 17.7557 44.3504 17.7557C43.1624 17.7557 42.1043 18.3338 41.4418 19.2239C40.7798 18.3338 39.7208 17.7557 38.5301 17.7557C37.5556 17.7557 36.6056 18.1544 35.9237 18.8498C35.2465 19.5402 34.8836 20.4483 34.9022 21.4064C34.9038 21.4923 34.9097 21.5773 34.9173 21.6618C33.4761 21.987 32.3962 23.2766 32.3962 24.8147C32.3962 26.1163 33.1699 27.2399 34.2811 27.7519C33.4983 28.7206 33.0415 29.9464 33.0415 31.2423C33.0415 34.3028 35.5313 36.7927 38.5918 36.7927C39.5999 36.7927 40.584 36.5172 41.4402 36.0051C42.301 36.5202 43.2854 36.7924 44.2885 36.7927C47.349 36.7927 49.8389 34.3028 49.8389 31.2423C49.8389 29.9462 49.3821 28.7206 48.5993 27.7519C49.7106 27.2399 50.4841 26.1163 50.4841 24.8147ZM44.3504 20.0996C44.7044 20.0996 45.0486 20.2448 45.2948 20.4979C45.5232 20.7328 45.644 21.0357 45.6353 21.3508C45.615 22.0692 45.0326 22.6602 44.3368 22.6682C44.1504 22.668 43.9661 22.6279 43.7965 22.5505C43.7755 22.5408 43.7549 22.5304 43.7338 22.5209C43.627 22.4646 43.5293 22.3927 43.4436 22.3077C43.1988 22.0648 43.0647 21.7384 43.0661 21.3885C43.069 20.6778 43.6452 20.0996 44.3504 20.0996ZM37.5968 20.491C37.7181 20.3665 37.8633 20.2677 38.0236 20.2005C38.1839 20.1332 38.3561 20.0988 38.5299 20.0994C39.2373 20.0994 39.8134 20.6762 39.8142 21.3851C39.8151 21.5579 39.7813 21.7291 39.7148 21.8885C39.6483 22.048 39.5505 22.1925 39.4271 22.3135C39.3434 22.3959 39.2483 22.466 39.1448 22.5217C39.1065 22.5391 39.0691 22.5577 39.0313 22.5758C38.8785 22.6389 38.7145 22.6704 38.5493 22.6683C37.8439 22.6567 37.259 22.0704 37.2453 21.3613C37.239 21.0374 37.3639 20.7285 37.5968 20.491ZM34.74 24.8148C34.7399 24.3245 35.1388 23.9257 35.6288 23.9257C36.1192 23.9257 36.5179 24.3245 36.5179 24.8148C36.5179 24.9155 36.5004 25.0118 36.4694 25.1022C36.4401 25.1611 36.4119 25.2207 36.3847 25.2808C36.2279 25.5341 35.9482 25.7038 35.629 25.7038C35.1388 25.7038 34.74 25.305 34.74 24.8148ZM44.2885 34.4492C43.5235 34.4489 42.7838 34.175 42.2031 33.6769C41.9908 33.4945 41.7201 33.3943 41.4402 33.3946C41.1603 33.3944 40.8896 33.4946 40.6773 33.6769C40.0966 34.175 39.3568 34.4489 38.5918 34.4492C36.8237 34.4492 35.3852 33.0107 35.3852 31.2426C35.3852 29.9023 36.2303 28.6919 37.4879 28.2307C37.6942 28.1551 37.8751 28.023 38.0099 27.8495C38.1447 27.676 38.228 27.4681 38.2503 27.2495C38.2832 26.9273 38.3646 26.6118 38.4917 26.3139C38.5335 26.2346 38.5726 26.1537 38.6077 26.0707C38.9186 25.4851 39.4041 25.0108 39.9968 24.7136C40.0477 24.6912 40.0981 24.6676 40.1481 24.6428C40.5555 24.4648 40.9955 24.3731 41.4402 24.3737C41.8983 24.3737 42.3345 24.4692 42.7298 24.6417C42.7797 24.6665 42.8301 24.6899 42.8811 24.7123C43.4749 25.0094 43.9613 25.4843 44.2726 26.0707C44.3078 26.1537 44.3469 26.2346 44.3886 26.3139C44.5158 26.6118 44.5972 26.9273 44.63 27.2495C44.6523 27.4681 44.7356 27.676 44.8705 27.8495C45.0053 28.023 45.1861 28.1551 45.3924 28.2307C46.6501 28.692 47.4951 29.9023 47.4951 31.2426C47.4951 33.0106 46.0567 34.4492 44.2885 34.4492ZM47.2515 25.7038C46.9323 25.7038 46.6526 25.5341 46.4958 25.2808C46.4686 25.2208 46.4403 25.1612 46.411 25.1022C46.3791 25.0097 46.3627 24.9126 46.3625 24.8148C46.3625 24.3245 46.7613 23.9257 47.2516 23.9257C47.7418 23.9257 48.1406 24.3245 48.1406 24.8148C48.1405 25.3049 47.7417 25.7038 47.2515 25.7038Z" fill="#F1CDB3"/>
<path d="M55.0663 39.7758C55.0513 39.7007 55.0289 39.6273 54.9996 39.5566C54.9704 39.4857 54.9343 39.4178 54.8918 39.3539C54.8496 39.2897 54.8009 39.23 54.7465 39.1758C54.6922 39.1214 54.6326 39.0727 54.5684 39.0305C54.4403 38.9457 54.297 38.8864 54.1465 38.8559C53.9957 38.8254 53.8403 38.8254 53.6895 38.8559C53.6145 38.8712 53.5406 38.8934 53.4691 38.9227C53.3988 38.952 53.3309 38.9884 53.2676 39.0305C53.2031 39.0727 53.1434 39.1219 53.0895 39.1758C53.0354 39.2297 52.9862 39.2895 52.943 39.3539C52.9008 39.4172 52.8643 39.4852 52.8363 39.5566C52.807 39.627 52.7836 39.7008 52.7695 39.7758C52.7543 39.8508 52.7461 39.9281 52.7461 40.0043C52.7461 40.0803 52.7543 40.1578 52.7695 40.234C52.7836 40.3078 52.807 40.3816 52.8363 40.4531C52.8656 40.5234 52.902 40.5914 52.9441 40.6547C52.9862 40.7191 53.0354 40.7789 53.0895 40.8328C53.1434 40.8867 53.2031 40.9359 53.2676 40.9793C53.3309 41.0215 53.3988 41.0566 53.4691 41.0859C53.5406 41.1152 53.6145 41.1387 53.6895 41.1527C53.7646 41.168 53.8419 41.1762 53.918 41.1762C53.9941 41.1762 54.0716 41.168 54.1465 41.1527C54.2215 41.1387 54.2953 41.1152 54.3656 41.0859C54.4371 41.0566 54.5051 41.0215 54.5684 40.9793C54.6329 40.9359 54.6927 40.8867 54.7465 40.8328C54.8004 40.7789 54.8496 40.7191 54.8918 40.6547C54.9339 40.5914 54.9703 40.5234 54.9996 40.4531C55.0289 40.3816 55.0511 40.3078 55.0663 40.234C55.0816 40.1578 55.0897 40.0803 55.0897 40.0043C55.0897 39.9281 55.0816 39.8508 55.0663 39.7758Z" fill="#F1CDB3"/>
<path d="M41.4402 0C40.7931 0 40.2683 0.524648 40.2683 1.17188V3.13359C40.2683 3.78082 40.7931 4.30547 41.4402 4.30547C42.0874 4.30547 42.612 3.7807 42.612 3.13359V1.17188C42.612 0.524648 42.0874 0 41.4402 0Z" fill="#F1CDB3"/>
<path d="M36.5032 4.55659L34.8675 3.27234C34.7465 3.1773 34.6079 3.10703 34.4597 3.06555C34.3115 3.02407 34.1566 3.01218 34.0038 3.03057C33.851 3.04896 33.7033 3.09727 33.5692 3.17273C33.4351 3.24819 33.3171 3.34934 33.2221 3.47038C32.8225 3.97944 32.9112 4.71608 33.4201 5.11569L35.0558 6.39995C35.2619 6.56221 35.5165 6.65035 35.7788 6.65015C35.9565 6.65039 36.1319 6.61017 36.2917 6.53253C36.4516 6.45488 36.5916 6.34186 36.7013 6.20202C37.101 5.69284 37.0123 4.9562 36.5032 4.55659Z" fill="#F1CDB3"/>
<path d="M49.6583 3.47021C49.2587 2.96115 48.5222 2.87244 48.0129 3.27216L46.3772 4.55642C45.8681 4.95603 45.7794 5.69267 46.1791 6.20185C46.2887 6.34177 46.4288 6.45487 46.5886 6.53254C46.7485 6.61021 46.9239 6.65042 47.1016 6.6501C47.3639 6.65028 47.6185 6.56214 47.8246 6.3999L49.4603 5.11564C49.9693 4.71603 50.0581 3.97939 49.6583 3.47021Z" fill="#F1CDB3"/>
</svg>
