<svg width="32" height="60" viewBox="0 0 32 60" fill="none" xmlns="http://www.w3.org/2000/svg">
<path d="M23.8261 17.1814V11.7391C23.8261 11.0188 23.2421 10.4348 22.5218 10.4348H21.5435V1.3043C21.5435 0.583945 20.9595 0 20.2392 0H11.7609C11.0406 0 10.4566 0.583945 10.4566 1.3043V10.4347H9.47833C8.75798 10.4347 8.17403 11.0187 8.17403 11.739V17.1813C3.59352 19.0078 0.3479 23.4879 0.3479 28.712V58.6956C0.3479 59.4159 0.931845 59.9999 1.6522 59.9999H30.3479C31.0683 59.9999 31.6522 59.4159 31.6522 58.6956V28.7121C31.6521 23.4879 28.4065 19.0078 23.8261 17.1814ZM13.0652 2.60871H18.9348V10.4348H13.0652V2.60871ZM10.7825 13.0434H21.2172V16.3043H10.7825V13.0434ZM29.0434 57.3913H2.95649V28.7121C2.95649 23.3088 7.35231 18.913 12.7555 18.913H19.2444C24.6477 18.913 29.0434 23.3088 29.0434 28.7121V57.3913Z" fill="#F1CDB3"/>
<path d="M24.4783 27.3913H7.52171C6.80136 27.3913 6.21741 27.9752 6.21741 28.6956V52.826C6.21741 53.5464 6.80136 54.1303 7.52171 54.1303H24.4783C25.1986 54.1303 25.7826 53.5464 25.7826 52.826V44.6287C25.7826 43.9084 25.1986 43.3244 24.4783 43.3244C23.7579 43.3244 23.174 43.9084 23.174 44.6287V51.5217H8.82613V30H23.174V34.1287C23.174 34.8491 23.7579 35.433 24.4783 35.433C25.1986 35.433 25.7826 34.8491 25.7826 34.1287V28.6957C25.7826 27.9752 25.1986 27.3913 24.4783 27.3913Z" fill="#F1CDB3"/>
<path d="M24.4782 38.0645C23.7579 38.0645 23.1739 38.6484 23.1739 39.3688V39.4992C23.1739 40.2195 23.7579 40.8035 24.4782 40.8035C25.1986 40.8035 25.7825 40.2195 25.7825 39.4992V39.3688C25.7825 38.6484 25.1986 38.0645 24.4782 38.0645Z" fill="#F1CDB3"/>
<path d="M14.688 41.1512C12.5303 41.1512 10.775 42.9066 10.775 45.0642C10.775 47.2219 12.5303 48.9773 14.688 48.9773C16.8457 48.9773 18.601 47.2219 18.601 45.0642C18.601 42.9067 16.8457 41.1512 14.688 41.1512ZM14.688 46.3687C13.9688 46.3687 13.3837 45.7835 13.3837 45.0644C13.3837 44.3452 13.9688 43.7601 14.688 43.7601C15.4072 43.7601 15.9923 44.3452 15.9923 45.0644C15.9923 45.7835 15.4073 46.3687 14.688 46.3687Z" fill="#F1CDB3"/>
<path d="M21.5414 35.9842C21.5414 33.8266 19.7861 32.0712 17.6284 32.0712C15.4707 32.0712 13.7154 33.8266 13.7154 35.9842C13.7154 38.1419 15.4707 39.8973 17.6284 39.8973C19.7859 39.8974 21.5414 38.1419 21.5414 35.9842ZM17.6283 37.2887C16.9091 37.2887 16.324 36.7035 16.324 35.9844C16.324 35.2652 16.9091 34.6801 17.6283 34.6801C18.3475 34.6801 18.9326 35.2652 18.9326 35.9844C18.9326 36.7035 18.3477 37.2887 17.6283 37.2887Z" fill="#F1CDB3"/>
</svg>
