<svg width="58" height="60" viewBox="0 0 58 60" fill="none" xmlns="http://www.w3.org/2000/svg">
<path d="M56.6643 19.9663L29.6921 0.226256C29.4912 0.0792462 29.2488 0 28.9999 0C28.751 0 28.5086 0.0792462 28.3077 0.226256L1.33562 19.9663C0.813429 20.3485 0.699875 21.0818 1.08214 21.6041L4.60749 26.4211C4.69835 26.5453 4.8128 26.6504 4.9443 26.7304C5.07579 26.8104 5.22177 26.8637 5.37387 26.8872C5.52597 26.9107 5.68122 26.9041 5.83075 26.8676C5.98028 26.8311 6.12114 26.7655 6.2453 26.6745L7.30913 25.8959V58.828C7.30913 59.4751 7.8339 59.9998 8.48101 59.9998H49.5808C50.2279 59.9998 50.7526 59.4751 50.7526 58.828V25.9413L51.7546 26.6745C51.8788 26.7655 52.0196 26.831 52.1691 26.8675C52.3186 26.904 52.4739 26.9106 52.626 26.8871C52.778 26.8636 52.924 26.8103 53.0555 26.7303C53.187 26.6504 53.3014 26.5453 53.3923 26.4211L56.9176 21.6041C57.3 21.0816 57.1865 20.3485 56.6643 19.9663ZM48.4089 53.0856H20.6833C20.0362 53.0856 19.5114 53.6103 19.5114 54.2574C19.5114 54.9045 20.0362 55.4293 20.6833 55.4293H48.4089V57.6562H9.65277V25.105H37.096C37.7431 25.105 38.2678 24.5803 38.2678 23.9332C38.2678 23.2861 37.7431 22.7613 37.096 22.7613H11.5929L29 10.0213L48.4089 24.226V53.0856ZM52.1931 24.0911L29.6921 7.62348C29.4913 7.47638 29.2488 7.39712 29 7.39719C28.7511 7.39709 28.5086 7.47636 28.3078 7.62348L5.80667 24.0911L3.66554 21.1654L29.0001 2.62391L54.3346 21.1654L52.1931 24.0911Z" fill="#F1CDB3"/>
<path d="M42.4672 23.7046C42.4519 23.6295 42.4285 23.5557 42.3992 23.4842C42.3699 23.4139 42.3336 23.3459 42.2914 23.2826C42.2492 23.2184 42.2005 23.1587 42.1461 23.1045C41.9258 22.8855 41.6281 22.7621 41.3176 22.761C41.0093 22.761 40.707 22.8864 40.4892 23.1045C40.4352 23.1584 40.386 23.2182 40.3438 23.2826C40.3017 23.3459 40.2653 23.4139 40.236 23.4842C40.2067 23.5557 40.1833 23.6295 40.1692 23.7046C40.154 23.7796 40.1458 23.8569 40.1458 23.933C40.1458 24.0092 40.154 24.0866 40.1692 24.1615C40.1833 24.2364 40.2067 24.3103 40.236 24.3818C40.2653 24.4523 40.3017 24.5202 40.3438 24.5835C40.386 24.648 40.4352 24.7076 40.4892 24.7616C40.5431 24.8155 40.6028 24.8648 40.6673 24.9069C40.7306 24.949 40.7985 24.9855 40.87 25.0148C40.9403 25.0441 41.014 25.0675 41.0892 25.0816C41.1642 25.0968 41.2415 25.1049 41.3176 25.1049C41.3937 25.1049 41.4712 25.0968 41.5461 25.0816C41.6212 25.067 41.6947 25.0446 41.7652 25.0148C41.8367 24.9855 41.9047 24.949 41.9679 24.9069C42.0324 24.8648 42.092 24.8155 42.1461 24.7616C42.2 24.7077 42.2492 24.648 42.2914 24.5835C42.3336 24.5202 42.3699 24.4523 42.3992 24.3818C42.4285 24.3105 42.4519 24.2365 42.4672 24.1615C42.4824 24.0865 42.4893 24.0092 42.4893 23.933C42.4893 23.8569 42.4823 23.7795 42.4672 23.7046Z" fill="#F1CDB3"/>
<path d="M17.6102 54.0281C17.5952 53.9531 17.5729 53.8797 17.5436 53.809C17.5143 53.7386 17.4778 53.6695 17.4356 53.6063C17.3932 53.5423 17.3446 53.4826 17.2904 53.4281C17.2365 53.3742 17.1766 53.3262 17.1123 53.2828C16.9843 53.1978 16.841 53.1385 16.6904 53.1082C16.5392 53.0777 16.3834 53.0777 16.2322 53.1082C16.1584 53.1234 16.0846 53.1457 16.0131 53.175C15.9428 53.2043 15.8748 53.2406 15.8115 53.2828C15.7471 53.325 15.6872 53.3742 15.6334 53.4281C15.5783 53.482 15.5303 53.543 15.4869 53.6063C15.4019 53.7342 15.3427 53.8775 15.3124 54.0281C15.2971 54.1043 15.2902 54.1805 15.2902 54.2566C15.2897 54.4106 15.3199 54.5632 15.3791 54.7054C15.4084 54.7758 15.4449 54.8438 15.4869 54.9081C15.5303 54.9714 15.5783 55.0312 15.6334 55.0862C15.6873 55.1403 15.7472 55.1895 15.8115 55.2315C15.8748 55.2737 15.9428 55.3101 16.0131 55.3394C16.0846 55.3686 16.1584 55.3909 16.2322 55.4061C16.3084 55.4214 16.3857 55.4296 16.4619 55.4296C16.6934 55.4286 16.9196 55.3598 17.1123 55.2315C17.1766 55.1894 17.2363 55.1407 17.2904 55.0862C17.3443 55.0312 17.3936 54.9715 17.4356 54.9081C17.5641 54.7151 17.633 54.4885 17.6337 54.2566C17.6337 54.1805 17.6255 54.1042 17.6102 54.0281Z" fill="#F1CDB3"/>
<path d="M43.5564 30.5741C43.5564 29.5803 43.1667 28.6476 42.4588 27.9481C41.7578 27.2554 40.7992 26.8676 39.8218 26.876C39.5136 26.8793 39.207 26.9208 38.9091 26.9997C36.7391 27.5554 34.6189 28.2902 32.5703 29.1966C31.4004 28.9199 30.2023 28.7806 29.0001 28.7813C28.3231 28.7813 27.6401 28.8257 26.9697 28.9133C26.452 28.9816 25.9381 29.0761 25.43 29.1966C23.3818 28.2903 21.2619 27.5556 19.0922 26.9999C19.0818 26.997 19.0713 26.9942 19.0608 26.9915C17.9075 26.6978 16.718 26.9619 15.7976 27.7171C14.8775 28.472 14.3861 29.5867 14.4493 30.7745C14.5138 31.9938 14.6337 33.2096 14.8087 34.418C14.9658 35.5012 15.1666 36.5776 15.4104 37.6446C15.0476 38.5729 14.7949 39.5405 14.6573 40.5276C14.6001 40.9397 14.5712 41.3553 14.5708 41.7714C14.5708 47.0173 19.1453 51.2853 24.7684 51.2853H33.2321C36.3142 51.2853 39.1977 50.0035 41.1434 47.7686C42.9264 45.7205 43.7076 43.1486 43.343 40.5269C43.2646 39.9648 43.1489 39.4085 42.9968 38.8617C42.8816 38.4498 42.7459 38.0438 42.5904 37.6453C43.1063 35.3878 43.4276 33.0901 43.551 30.7777C43.5547 30.7091 43.5564 30.6416 43.5564 30.5741ZM41.2104 30.647L41.2102 30.651C41.0878 32.949 40.7577 35.2312 40.2241 37.4697C40.166 37.7133 40.1875 37.9692 40.2854 38.1997C40.464 38.6199 40.6153 39.0511 40.7385 39.4907C40.8626 39.937 40.957 40.391 41.0211 40.8497C41.2908 42.7897 40.7063 44.7004 39.375 46.2296C37.8747 47.9529 35.6356 48.9414 33.2315 48.9414H24.7679C20.4373 48.9414 16.914 45.7249 16.914 41.7714C16.914 41.4679 16.9356 41.1574 16.9782 40.8496C17.1055 39.938 17.353 39.0473 17.714 38.2007C17.8123 37.9699 17.8339 37.7138 17.7758 37.4698C17.509 36.3508 17.2928 35.2203 17.1276 34.0819C16.9628 32.9439 16.8499 31.799 16.7892 30.6508C16.7659 30.2148 16.9462 29.806 17.2838 29.5289C17.5311 29.326 17.8315 29.2196 18.1408 29.2196C18.2461 29.2196 18.3527 29.2319 18.4585 29.2571L18.4818 29.2633C20.6611 29.8194 22.7869 30.5674 24.8342 31.4985C25.0815 31.6112 25.3602 31.6346 25.6227 31.5646C26.1654 31.4199 26.7169 31.3106 27.2737 31.2372C27.8429 31.1628 28.4236 31.125 28.9994 31.125C30.1471 31.125 31.283 31.2729 32.3759 31.5646C32.6382 31.6342 32.9166 31.6114 33.1636 31.499C35.2183 30.5646 37.3518 29.8145 39.5391 29.2573C39.6392 29.2333 39.7417 29.2207 39.8446 29.2196H39.8599C40.2101 29.2196 40.5561 29.3632 40.8108 29.6149C40.9383 29.74 41.0395 29.8892 41.1084 30.0539C41.1773 30.2186 41.2126 30.3955 41.2122 30.574C41.2123 30.5983 41.2117 30.6224 41.2104 30.647Z" fill="#F1CDB3"/>
<path d="M31.1978 43.5662C30.6322 43.5662 30.1718 43.1059 30.1718 42.5403C30.1718 41.8932 29.6472 41.3684 29 41.3684C28.3527 41.3684 27.8281 41.8932 27.8281 42.5403V42.5831C27.8281 43.1487 27.3679 43.609 26.8022 43.609C26.155 43.609 25.6304 44.1338 25.6304 44.7809C25.6304 45.428 26.155 45.9528 26.8022 45.9528C27.653 45.9528 28.4309 45.6356 29.0246 45.1135C29.6316 45.6284 30.4019 45.9107 31.1978 45.9099C31.8449 45.9099 32.3697 45.3851 32.3697 44.738C32.3697 44.0908 31.8449 43.5662 31.1978 43.5662Z" fill="#F1CDB3"/>
<path d="M24.9036 38.1664L23.1629 37.3688C23.0098 37.2985 22.8433 37.2621 22.6748 37.2621C22.5063 37.2621 22.3398 37.2985 22.1867 37.3688L20.4459 38.1664C19.8575 38.4359 19.599 39.1314 19.8686 39.7198C19.9327 39.8597 20.0237 39.9856 20.1365 40.0904C20.2492 40.1951 20.3815 40.2766 20.5258 40.3302C20.67 40.3838 20.8234 40.4085 20.9772 40.4028C21.131 40.3971 21.2822 40.3612 21.4221 40.2971L22.6747 39.7232L23.9273 40.2971C24.5154 40.5669 25.2112 40.3082 25.4807 39.7198C25.7505 39.1314 25.4919 38.4358 24.9036 38.1664Z" fill="#F1CDB3"/>
<path d="M37.554 38.1662L35.8133 37.3686C35.6602 37.2983 35.4937 37.262 35.3252 37.262C35.1567 37.262 34.9902 37.2983 34.8371 37.3686L33.0964 38.1662C32.508 38.4357 32.2495 39.1312 32.5192 39.7196C32.7888 40.3083 33.4843 40.5669 34.0726 40.2969L35.3252 39.723L36.5778 40.2969C36.7307 40.3672 36.8969 40.4036 37.0652 40.4036C37.5093 40.4036 37.9342 40.1498 38.1313 39.7196C38.4009 39.1312 38.1425 38.4357 37.554 38.1662Z" fill="#F1CDB3"/>
</svg>
